<svg id="Capa_1" data-name="Capa 1" xmlns="http://www.w3.org/2000/svg" viewBox="0 0 507.99 768"><defs><style>.cls-1{fill:#863dc5;}</style></defs><path class="cls-1" d="M270.07,273.36l22.9-.77c4.78-.16,10.63-2.3,11.69-7.24,11-51.59,66.93-134.26,87.55-151.51.55-.47,1.24-1,2-1.58a7.1,7.1,0,0,0,.54-10.53L367.68,75.45a5.85,5.85,0,0,0-8.22.64c-5.65,6.34-16.15,18.31-21.8,25.81-11.34,15-26.67,39.53-39,65.85-2.67,5.71-19.27,44.54-31.8,101.16C266.36,271.21,267.88,273.43,270.07,273.36Z" transform="translate(0 0)"/><path class="cls-1" d="M170.14,155.14c22,20.26,47.88,28.7,77.64,24.4a53.93,53.93,0,0,0,20.41-7.2,60.89,60.89,0,0,0,8.16-6.51c9.33-10,14.07-22.68,16.85-36.35l.43-2.68c3.21-26.36-3.21-48.5-16.51-67.5C267.25,45.19,253.89,35.16,239,27,219.35,16.13,197.92,9.19,175.74,4a116.14,116.14,0,0,0-12.16-2.1L148.15.06c-4.65-.56-9.61,2.64-10.72,7.19-1.54,6.34-1.83,13-2.44,19.69a182,182,0,0,0-.79,19.39c.36,22.74,2.84,45.15,10,66.79C149.48,129.21,157.57,143.59,170.14,155.14Z" transform="translate(0 0)"/><path class="cls-1" d="M503.34,674.25l-62.73-62.72a15.6,15.6,0,0,0-21.21-.9,169.9,169.9,0,0,1-45.21,28q-32.26,13.73-75.8,13.7-37.11,0-68.15-12.9A153.24,153.24,0,0,1,177,603.16q-22.2-23.38-34.68-56.45t-12.5-73.38a227.64,227.64,0,0,1,1.71-28.24,191,191,0,0,1,10.79-44.34Q154.83,367.69,177,344.3a149.07,149.07,0,0,1,53.22-35.88q31-12.5,68.15-12.5,41.91,0,73.78,13.7a162.68,162.68,0,0,1,43.94,27.66,15.62,15.62,0,0,0,21.44-.8l50.65-51.13,11.43-11.54a15.77,15.77,0,0,0-.83-23.05,296.25,296.25,0,0,0-79.86-48.39l-1.35-.05c-17-5.47-37.11-10-55-1.82-58,26.68-84.2,10-126.85-.13-18.48-4.39-36-4-52.19,1.08A91.58,91.58,0,0,0,167,208.53a287.89,287.89,0,0,0-81.51,55.93,282.06,282.06,0,0,0-62.89,93.15Q0,411.25,0,473.33T22.59,589.05A288.12,288.12,0,0,0,181.05,745.5c36.29,14.78,76.41,22.5,118.89,22.5,46.23,0,86.2-7.58,121.43-22.1a315.39,315.39,0,0,0,81-48.37A15.78,15.78,0,0,0,503.34,674.25Z" transform="translate(0 0)"/></svg>